<svg width="176" height="177" viewBox="0 0 176 177" fill="none" xmlns="http://www.w3.org/2000/svg">
<line y1="-0.700589" x2="178.924" y2="-0.700589" transform="matrix(-0.704314 0.709888 -0.704314 -0.709888 126.904 48.0723)" stroke="black" stroke-width="1.40118"/>
<mask id="mask0_11_2" style="mask-type:alpha" maskUnits="userSpaceOnUse" x="79" y="3" width="94" height="95">
<mask id="path-2-inside-1_11_2" fill="white">
<path d="M172.174 67.4933C169.12 74.8852 164.305 81.4039 158.155 86.4721C152.004 91.5404 144.709 95.0016 136.915 96.5492C129.12 98.0969 121.068 97.6832 113.47 95.3448C105.872 93.0064 98.9635 88.8154 93.3564 83.1432C87.7494 77.471 83.6168 70.4925 81.3247 62.826C79.0327 55.1595 78.6518 47.0415 80.216 39.1912C81.7801 31.3409 85.241 24.0006 90.292 17.8204C95.343 11.6403 101.828 6.81101 109.173 3.76046L127.578 48.7779L172.174 67.4933Z"/>
</mask>
<path d="M172.174 67.4933C169.12 74.8852 164.305 81.4039 158.155 86.4721C152.004 91.5404 144.709 95.0016 136.915 96.5492C129.12 98.0969 121.068 97.6832 113.47 95.3448C105.872 93.0064 98.9635 88.8154 93.3564 83.1432C87.7494 77.471 83.6168 70.4925 81.3247 62.826C79.0327 55.1595 78.6518 47.0415 80.216 39.1912C81.7801 31.3409 85.241 24.0006 90.292 17.8204C95.343 11.6403 101.828 6.81101 109.173 3.76046L127.578 48.7779L172.174 67.4933Z" fill="white" stroke="black" stroke-width="2.80236" mask="url(#path-2-inside-1_11_2)"/>
</mask>
<g mask="url(#mask0_11_2)">
<rect width="50.1086" height="107.354" transform="matrix(0.704314 -0.709888 0.704314 0.709888 70.8691 35.6598)" fill="#C43232"/>
<rect width="71.0373" height="16.4367" transform="matrix(0.704314 0.709888 -0.704314 0.709888 80.0202 45.2496)" fill="#59A45C"/>
<mask id="path-5-inside-2_11_2" fill="white">
<path d="M172.174 67.4933C169.12 74.8852 164.305 81.4039 158.155 86.4721C152.004 91.5404 144.709 95.0016 136.915 96.5492C129.12 98.0969 121.068 97.6832 113.47 95.3448C105.872 93.0064 98.9635 88.8154 93.3564 83.1432C87.7494 77.471 83.6168 70.4925 81.3247 62.826C79.0327 55.1595 78.6518 47.0415 80.216 39.1912C81.7801 31.3409 85.241 24.0006 90.292 17.8204C95.343 11.6403 101.828 6.81101 109.173 3.76046L127.578 48.7779L172.174 67.4933Z"/>
</mask>
<path d="M172.174 67.4933C169.12 74.8852 164.305 81.4039 158.155 86.4721C152.004 91.5404 144.709 95.0016 136.915 96.5492C129.12 98.0969 121.068 97.6832 113.47 95.3448C105.872 93.0064 98.9635 88.8154 93.3564 83.1432C87.7494 77.471 83.6168 70.4925 81.3247 62.826C79.0327 55.1595 78.6518 47.0415 80.216 39.1912C81.7801 31.3409 85.241 24.0006 90.292 17.8204C95.343 11.6403 101.828 6.81101 109.173 3.76046L127.578 48.7779L172.174 67.4933Z" stroke="black" stroke-width="2.80236" mask="url(#path-5-inside-2_11_2)"/>
<line y1="-0.700589" x2="73.5577" y2="-0.700589" transform="matrix(0.704314 0.709888 -0.704314 0.709888 79.2704 45.2496)" stroke="black" stroke-width="1.40118"/>
<line y1="-0.700589" x2="148.139" y2="-0.700589" transform="matrix(-0.699625 0.71451 -0.708974 -0.705235 126.904 48.0723)" stroke="black" stroke-width="1.40118"/>
</g>
</svg>
