<svg width="383" height="383" viewBox="0 0 383 383" fill="none" xmlns="http://www.w3.org/2000/svg">
<line x1="227.486" y1="153.224" x2="101.38" y2="279.33" stroke="black" stroke-width="1.40118"/>
<mask id="mask0_6_2" style="mask-type:alpha" maskUnits="userSpaceOnUse" x="179" y="108" width="94" height="94">
<mask id="path-2-inside-1_6_2" fill="white">
<path d="M272.292 172.01C269.236 179.349 264.418 185.821 258.263 190.853C252.109 195.885 244.809 199.321 237.009 200.858C229.209 202.395 221.151 201.984 213.548 199.662C205.944 197.341 199.031 193.18 193.42 187.548C187.809 181.916 183.674 174.988 181.38 167.376C179.087 159.765 178.706 151.705 180.271 143.911C181.836 136.117 185.299 128.829 190.354 122.693C195.408 116.557 201.898 111.763 209.248 108.734L227.665 153.429L272.292 172.01Z"/>
</mask>
<path d="M272.292 172.01C269.236 179.349 264.418 185.821 258.263 190.853C252.109 195.885 244.809 199.321 237.009 200.858C229.209 202.395 221.151 201.984 213.548 199.662C205.944 197.341 199.031 193.18 193.42 187.548C187.809 181.916 183.674 174.988 181.38 167.376C179.087 159.765 178.706 151.705 180.271 143.911C181.836 136.117 185.299 128.829 190.354 122.693C195.408 116.557 201.898 111.763 209.248 108.734L227.665 153.429L272.292 172.01Z" fill="white" stroke="black" stroke-width="2.80236" mask="url(#path-2-inside-1_6_2)"/>
</mask>
<g mask="url(#mask0_6_2)">
<rect x="170.918" y="140.405" width="49.9452" height="107.004" transform="rotate(-45 170.918 140.405)" fill="#C43232"/>
<rect x="180.075" y="149.926" width="70.8057" height="16.3831" transform="rotate(45 180.075 149.926)" fill="#59A45C"/>
<mask id="path-5-inside-2_6_2" fill="white">
<path d="M272.292 172.01C269.236 179.349 264.418 185.821 258.263 190.853C252.109 195.885 244.809 199.321 237.009 200.858C229.209 202.395 221.151 201.984 213.548 199.662C205.944 197.341 199.031 193.18 193.42 187.548C187.809 181.916 183.674 174.988 181.38 167.376C179.087 159.765 178.706 151.705 180.271 143.911C181.836 136.117 185.299 128.829 190.354 122.693C195.408 116.557 201.898 111.763 209.248 108.734L227.665 153.429L272.292 172.01Z"/>
</mask>
<path d="M272.292 172.01C269.236 179.349 264.418 185.821 258.263 190.853C252.109 195.885 244.809 199.321 237.009 200.858C229.209 202.395 221.151 201.984 213.548 199.662C205.944 197.341 199.031 193.18 193.42 187.548C187.809 181.916 183.674 174.988 181.38 167.376C179.087 159.765 178.706 151.705 180.271 143.911C181.836 136.117 185.299 128.829 190.354 122.693C195.408 116.557 201.898 111.763 209.248 108.734L227.665 153.429L272.292 172.01Z" stroke="black" stroke-width="2.80236" mask="url(#path-5-inside-2_6_2)"/>
<line x1="179.82" y1="149.431" x2="231.664" y2="201.274" stroke="black" stroke-width="1.40118"/>
<line x1="227.489" y1="153.221" x2="123.776" y2="258.309" stroke="black" stroke-width="1.40118"/>
</g>
</svg>
